<svg xmlns="http://www.w3.org/2000/svg" xmlns:xlink="http://www.w3.org/1999/xlink" xmlns:sketch="http://www.bohemiancoding.com/sketch/ns" viewBox="0 0 30 30" version="1.1" x="0px" y="0px"><title>action_001-edit-pen-pencil-write-compose</title><desc>Created with Sketch.</desc><g stroke="none" stroke-width="1" fill="#FFFFFF" fill-rule="evenodd" sketch:type="MSPage"><g sketch:type="MSArtboardGroup" transform="translate(-45.000000, -45.000000)" fill="#FFFFFF"><g sketch:type="MSLayerGroup" transform="translate(50.000000, 47.000000)"><path d="M16.0049107,5 L1.99508929,5 C0.893231902,5 0,5.8926228 0,6.99508929 L0,21.0049107 C0,22.1067681 0.905082651,23 2.00285136,23 L13.4753903,23 L11.4753903,21 L2,21 L2,7 L16,7 L16,17.0393283 L18,19.0393283 L18,6.99658373 C18,5.89390099 17.1073772,5 16.0049107,5 Z" sketch:type="MSShapeGroup" transform="translate(9.000000, 14.000000) scale(1, -1) translate(-9.000000, -14.000000) "/><path d="M16.4980807,1.6276279 L12.4980807,1.6276279 L12.4980807,13.6276279 L16.4980807,13.6276279 L16.4980807,1.6276279 Z M16.4341177,14.8723149 L14.9341177,17.5453489 C14.7430887,17.8857669 14.2530727,17.8857669 14.0620437,17.5453489 L12.5620437,14.8723149 C12.5201067,14.7975809 12.4980807,14.7133239 12.4980807,14.6276279 L16.4980807,14.6276279 C16.4980807,14.7133239 16.4760547,14.7975809 16.4341177,14.8723149 Z M16.4980807,-0.872372098 C16.4980807,-1.1485141 16.2742227,-1.3723721 15.9980807,-1.3723721 L12.9980807,-1.3723721 C12.7219387,-1.3723721 12.4980807,-1.1485141 12.4980807,-0.872372098 L12.4980807,0.627627902 L16.4980807,0.627627902 L16.4980807,-0.872372098 Z" sketch:type="MSShapeGroup" transform="translate(14.498081, 8.214145) rotate(-315.000000) translate(-14.498081, -8.214145) "/></g></g></g></svg>